# AST/ASF file generated using VICON BodyLanguage
# -----------------------------------------------
:version 1.10
:name VICON
:units
  mass 1.0
  length 0.45
  angle deg
:documentation
   .ast/.asf automatically generated from VICON data using
   VICON BodyBuilder and BodyLanguage model FoxedUp or BRILLIANT.MOD
:root
   order TX TY TZ RX RY RZ
   axis XYZ
   position 0 0 0  
   orientation 0 0 0 
:bonedata
  begin
     id 1 
     name lhipjoint
     direction 0.570549 -0.739093 0.358072 
     length 2.41801 
     axis 0 0 0  XYZ
  end
  begin
     id 2 
     name lfemur
     direction 0.34202 -0.939693 0  
     length 7.44434  
     axis 0 0 20  XYZ
    dof rx ry rz
    limits (-160.0 20.0)
           (-70.0 70.0)
           (-60.0 70.0)
  end
  begin
     id 3 
     name ltibia
     direction 0.34202 -0.939693 0   
     length 7.60047   
     axis 0 0 20   XYZ
    dof rx
    limits (-10.0 170.0)
  end
  begin
     id 4 
     name lfoot
     direction 0.0909041 -0.249757 0.964032   
     length 2.03437   
     axis -90 7.62852e-016 20   XYZ
    dof rx rz
    limits (-45.0 90.0)
           (-70.0 20.0)
  end
  begin
     id 5 
     name ltoes
     direction 1.53547e-011 -4.2174e-011 1   
     length 1.02054   
     axis -90 7.62852e-016 20   XYZ
    dof rx
    limits (-90.0 20.0)
  end
  begin
     id 6 
     name rhipjoint
     direction -0.558096 -0.746754 0.361784   
     length 2.3932  
     axis 0 0 0  XYZ 
  end
  begin
     id 7 
     name rfemur
     direction -0.34202 -0.939693 0   
     length 7.3886   
     axis 0 0 -20   XYZ
    dof rx ry rz
    limits (-160.0 20.0)
           (-70.0 70.0)
           (-70.0 60.0)
  end
  begin
     id 8 
     name rtibia
     direction -0.34202 -0.939693 0   
     length 7.4839   
     axis 0 0 -20   XYZ
    dof rx
    limits (-10.0 170.0)
 end
 begin
     id 9 
     name rfoot
     direction -0.114619 -0.314914 0.942174   
     length 2.25127  
     axis -90 -7.62852e-016 -20   XYZ
    dof rx rz
    limits (-45.0 90.0)
           (-20.0 70.0)
  end
  begin
     id 10 
     name rtoes
     direction -1.53518e-011 -4.21881e-011 1   
     length 1.11821   
     axis -90 -7.62852e-016 -20   XYZ
    dof rx
    limits (-90.0 20.0)
  end
  begin
     id 11 
     name lowerback
     direction -0.00902269 0.996426 -0.0839821   
     length 2.25052   
     axis 0 0 0   XYZ
    dof rx ry rz
    limits (-20.0 45.0)
           (-30.0 30.0)
           (-30.0 30.0)
  end
  begin
     id 12 
     name upperback
     direction 0.0370973 0.999169 -0.0168941   
     length 2.24876   
     axis 0 0 0   XYZ
    dof rx ry rz
    limits (-20.0 45.0)
           (-30.0 30.0)
           (-30.0 30.0)
  end
  begin
     id 13 
     name thorax
     direction 0.0402726 0.998931 0.0227027   
     length 2.26408   
     axis 0 0 0   XYZ
    dof rx ry rz
    limits (-20.0 45.0)
           (-30.0 30.0)
           (-30.0 30.0)
  end
  begin
     id 14 
     name lowerneck
     direction -0.0733697 0.98508 0.155675   
     length 1.58204   
     axis 0 0 0   XYZ
    dof rx ry rz
    limits (-20.0 45.0)
           (-30.0 30.0)
           (-30.0 30.0)
  end
  begin
     id 15 
     name upperneck
     direction 0.0426554 0.993501 -0.105526   
     length 1.61222   
     axis 0 0 0   XYZ
    dof rx ry rz
    limits (-20.0 45.0)
           (-30.0 30.0)
           (-30.0 30.0)
  end
  begin
     id 16
     name head
     direction 0.020792 0.998384 -0.0528868  
     length 1.61527  
     axis 0 0 0   XYZ
    dof rx ry rz
    limits (-20.0 45.0)
           (-30.0 30.0)
           (-30.0 30.0)
  end
  begin
     id 17 
     name lclavicle
     direction 0.967109 0.155462 -0.201325  
     length 3.59357  
     axis 0 0 0   XYZ
    dof ry rz
    limits (-20.0 10.0)
           (0.0 20.0)
  end
  begin
     id 18 
     name lhumerus
     direction 1 -4.48968e-011 2.38195e-027   
     length 5.38154   
     axis 180 -30 -90   XYZ
    dof rx ry rz
    limits (-60.0 90.0)
           (-90.0 90.0)
           (-90.0 90.0)
  end
  begin
     id 19
     name lradius
     direction 1 -4.48961e-011 4.85371e-027   
     length 3.33312   
     axis 180 -30 -90   XYZ
    dof rx
    limits (-10.0 170.0)
  end
  begin
     id 20
     name lwrist
     direction 1 -4.48961e-011 4.76515e-027   
     length 1.66656   
     axis -3.27502e-015 90 90   XYZ
    dof ry
    limits (-180.0 0.0)
 end
  begin
     id 21 
     name lhand
     direction 1 -4.48951e-011 9.53074e-027   
     length 0.710789   
     axis -6.08098e-015 90 90   XYZ
    dof rx rz
    limits (-90.0 90.0)
           (-45.0 45.0)
  end
  begin
     id 22 
     name lfingers
     direction 1 -4.48953e-011 1.90613e-026   
     length 0.573057   
     axis -1.21619e-014 90 90   XYZ
    dof rx
    limits (0.0 90.0)
  end
  begin
     id 23
     name lthumb
     direction 0.707107 -6.34973e-011 0.707107   
     length 0.822798   
     axis -90 45 -9.86923e-015   XYZ
    dof rx rz
    limits (-45.0 45.0)
           (-45.0 45.0)
  end
  begin
     id 24 
     name rclavicle
     direction -0.9585 0.265289 -0.104398   
     length 3.42039  
     axis 0 0 0   XYZ 
    dof ry rz
    limits (-10.0 20.0)
           (-20.0 0.0)
  end
  begin
     id 25 
     name rhumerus
     direction -1 -4.48977e-011 2.21478e-027  
     length 5.16954   
     axis 180 30 90   XYZ
    dof rx ry rz
    limits (-90.0 60.0)
           (-90.0 90.0)
           (-90.0 90.0)
  end
  begin
     id 26 
     name rradius
     direction -1 -4.48967e-011 5.63677e-027   
     length 3.38287   
     axis 180 30 90   XYZ
    dof rx
    limits (-10.0 170.0)
  end
  begin
     id 27 
     name rwrist
     direction -1 -4.48967e-011 4.76501e-027   
     length 1.69144   
     axis -3.27502e-015 -90 -90   XYZ
    dof ry
    limits (-180.0 0.0)
  end
  begin
     id 28
     name rhand
     direction -1 -4.48902e-011 9.53292e-027   
     length 0.817967   
     axis -6.08098e-015 -90 -90   XYZ
    dof rx rz
    limits (-90.0 90.0)
           (-45.0 45.0)
  end
  begin
     id 29
     name rfingers
     direction -1 -4.49012e-011 1.90561e-026   
     length 0.659466   
     axis -1.21619e-014 -90 -90   XYZ
    dof rx
    limits (0.0 90.0)
  end
  begin
     id 30
     name rthumb
     direction -0.707107 -6.34944e-011 0.707107   
     length 0.946865   
     axis -90 -45 9.86923e-015   XYZ
    dof rx rz
    limits (-45.0 45.0)
           (-45.0 45.0)
  end
:hierarchy
  begin
    root lhipjoint rhipjoint lowerback
    lhipjoint lfemur
    lfemur ltibia
    ltibia lfoot
    lfoot ltoes
    rhipjoint rfemur
    rfemur rtibia
    rtibia rfoot
    rfoot rtoes
    lowerback upperback
    upperback thorax
    thorax lowerneck lclavicle rclavicle
    lowerneck upperneck
    upperneck head
    lclavicle lhumerus
    lhumerus lradius
    lradius lwrist
    lwrist lhand lthumb
    lhand lfingers
    rclavicle rhumerus
    rhumerus rradius
    rradius rwrist
    rwrist rhand rthumb
    rhand rfingers
  end

#!OML:ASF F:\twosubjects\two\wednesday\Session 1\Justin1.ASF
:FULLY-SPECIFIED
:DEGREES
1
root -6.06249 16.7848 -13.4779 -146.589 67.2948 -155.654
lowerback 4.92546 -0.697586 4.35543
upperback 1.71624 -0.490005 4.60718
thorax -0.995439 -0.174598 2.3306
lowerneck -13.1206 -6.87348 -12.2475
upperneck 12.8878 -8.35545 9.26615
head 7.00888 -3.88604 4.13149
rclavicle 1.91827e-014 1.59028e-015
rhumerus -19.9249 -8.39339 -69.1878
rradius 39.5937
rwrist -22.5018
rhand -9.03752 13.6326
rfingers 7.12502
rthumb 16.9103 -15.6512
lclavicle 1.91827e-014 1.59028e-015
lhumerus -31.886 10.3527 82.4617
lradius 37.9436
lwrist -7.37064
lhand 0.332363 37.5959
lfingers 7.12502
lthumb 25.9087 65.8505
rfemur -8.31316 -3.30417 28.9469
rtibia 26.3611
rfoot -29.1014 0.00269321
rtoes -18.3729
lfemur -40.2016 10.0212 -10.8184
ltibia 64.6202
lfoot -23.9008 -1.2635
ltoes -22.0066
2
root -5.99735 16.782 -13.5227 -145.043 67.1899 -154.137
lowerback 5.08183 -0.489682 5.00472
upperback 1.71889 -0.159455 4.62422
thorax -1.08492 -0.00579485 1.96773
lowerneck -12.9043 -6.83567 -11.8702
upperneck 12.5109 -8.36586 9.16099
head 6.82998 -3.88749 4.03928
rclavicle 1.4561e-014 -2.98177e-015
rhumerus -19.2299 -8.00999 -69.2853
rradius 39.9655
rwrist -23.0597
rhand -8.53838 13.8492
rfingers 7.12502
rthumb 17.3908 -15.3928
lclavicle 1.4561e-014 -2.98177e-015
lhumerus -31.9575 10.8644 82.252
lradius 38.0684
lwrist -7.75565
lhand 0.208506 37.5403
lfingers 7.12502
lthumb 25.7901 65.8122
rfemur -7.81139 -3.08023 29.4598
rtibia 25.5367
rfoot -28.9325 0.277011
rtoes -17.9724
lfemur -41.0847 10.1958 -10.134
ltibia 64.0219
lfoot -24.0028 -0.899159
ltoes -24.7398
3
root -5.91416 16.7772 -13.5695 -145.179 67.2756 -154.277
lowerback 5.36281 -0.330988 4.98579
upperback 1.62374 0.0693322 4.45431
thorax -1.33929 0.100565 1.78957
lowerneck -12.49 -6.84991 -11.5813
upperneck 12.1311 -8.47051 9.19682
head 6.63765 -3.93285 4.00217
rclavicle 1.32192e-014 6.50026e-014
rhumerus -18.9475 -7.12423 -69.362
rradius 40.5654
rwrist -24.069
rhand -8.91293 13.8015
rfingers 7.12502
rthumb 17.0302 -15.472
lclavicle 1.32192e-014 6.50026e-014
lhumerus -32.6368 10.1126 81.8543
lradius 38.7467
lwrist -7.04209
lhand 0.695192 37.6283
lfingers 7.12502
lthumb 26.2561 65.8317
rfemur -7.1832 -3.28749 29.1891
rtibia 25.006
rfoot -29.0733 0.88939
rtoes -17.141
lfemur -41.6133 10.0428 -10.0943
ltibia 63.2496
lfoot -24.1315 -0.736801
ltoes -24.1755
4
root -5.83301 16.7694 -13.6138 -146.061 67.326 -155.156
lowerback 5.6573 -0.294564 4.67716
upperback 1.64344 0.113249 4.30999
thorax -1.48328 0.117743 1.81025
lowerneck -12.6919 -6.99768 -11.7337
upperneck 12.1681 -8.67361 9.50531
head 6.72775 -4.00829 4.09881
rclavicle 4.11484e-014 -2.14687e-014
rhumerus -18.2761 -6.23253 -69.465
rradius 41.0549
rwrist -25.1863
rhand -8.91512 13.8018
rfingers 7.12502
rthumb 17.0281 -15.4719
lclavicle 4.11484e-014 -2.14687e-014
lhumerus -33.5256 8.18132 81.4581
lradius 39.8779
lwrist -4.93218
lhand 1.21858 37.7366
lfingers 7.12502
lthumb 26.757 65.8644
rfemur -6.49573 -3.71963 28.725
rtibia 24.4899
rfoot -29.2333 0.852402
rtoes -18.7889
lfemur -42.1087 9.84107 -10.367
ltibia 62.5323
lfoot -23.9014 -0.987301
ltoes -20.9291
5
root -5.76397 16.758 -13.6593 -146.373 67.3267 -155.518
lowerback 5.8404 -0.192698 4.60089
upperback 1.77358 0.247099 4.19391
thorax -1.45046 0.185371 1.72343
lowerneck -12.8714 -7.06641 -11.7085
upperneck 11.8583 -8.77813 9.76432
head 6.68245 -4.03425 4.16253
rclavicle 2.25124e-014 -3.18055e-015
rhumerus -17.3593 -5.82501 -69.5391
rradius 41.5208
rwrist -25.9919
rhand -8.61632 13.7219
rfingers 7.12502
rthumb 17.3157 -15.5267
lclavicle 2.25124e-014 -3.18055e-015
lhumerus -32.751 9.54752 81.5323
lradius 39.0873
lwrist -6.19822
lhand 1.24009 37.3985
lfingers 7.12502
lthumb 26.7776 65.5231
rfemur -5.96592 -3.55213 28.5361
rtibia 23.9852
rfoot -29.1107 0.562404
rtoes -18.7943
lfemur -42.8006 9.6464 -10.4434
ltibia 61.8476
lfoot -23.8012 -0.752608
ltoes -22.2479
6
root -5.69811 16.7319 -13.706 -145.054 66.9825 -154.314
lowerback 5.8982 -0.0767897 5.31765
upperback 1.78936 0.459445 4.25495
thorax -1.4608 0.295616 1.37206
lowerneck -12.6889 -7.11961 -11.6799
upperneck 11.3227 -8.86315 9.88312
head 6.49474 -4.07331 4.19091
rclavicle 1.72943e-014 3.598e-014
rhumerus -16.5901 -5.46762 -69.5198
rradius 42.0441
rwrist -26.7449
rhand -8.86505 13.6257
rfingers 7.12502
rthumb 17.0763 -15.6438
lclavicle 1.72943e-014 3.598e-014
lhumerus -32.589 10.1042 81.5362
lradius 38.9943
lwrist -6.69032
lhand 1.43138 37.3259
lfingers 7.12502
lthumb 26.9607 65.4223
rfemur -5.62362 -2.96209 29.1542
rtibia 23.4376
rfoot -28.7781 0.180132
rtoes -17.478
lfemur -43.8877 9.55231 -9.71209
ltibia 61.2186
lfoot -23.5821 -0.7525
ltoes -25.2486
7
root -5.62277 16.7085 -13.7474 -142.872 66.4735 -152.046
lowerback 6.10138 -0.00279569 6.36301
upperback 1.78469 0.667786 4.47655
thorax -1.56738 0.406355 1.0051
lowerneck -12.7287 -7.2481 -11.7415
upperneck 11.1931 -9.03701 10.0248
head 6.48992 -4.14884 4.22528
rclavicle 9.72554e-014 1.35174e-014
rhumerus -15.8687 -4.76591 -69.4642
rradius 42.591
rwrist -27.7515
rhand -9.34178 13.5323
rfingers 7.12502
rthumb 16.6174 -15.7763
lclavicle 9.72554e-014 1.35174e-014
lhumerus -32.9885 9.60611 81.2608
lradius 39.5998
lwrist -5.86172
lhand 1.90514 37.4423
lfingers 7.12502
lthumb 27.4139 65.4679
rfemur -5.09973 -2.33639 30.2858
rtibia 22.8161
rfoot -28.418 -0.173706
rtoes -15.8727
lfemur -44.8225 9.69108 -8.39915
ltibia 60.5837
lfoot -22.6852 -1.90599
ltoes -23.9315
8
root -5.53652 16.7021 -13.7993 -142.41 66.4604 -151.541
lowerback 6.37462 0.121733 6.54636
upperback 1.77828 0.87547 4.46142
thorax -1.71775 0.507357 0.870538
lowerneck -12.9014 -7.42188 -11.7658
upperneck 11.2084 -9.2788 10.1954
head 6.56172 -4.24817 4.25125
rclavicle 1.04859e-014 -2.32578e-014
rhumerus -15.2136 -3.97118 -69.3329
rradius 43.1829
rwrist -28.8763
rhand -9.58301 13.3229
rfingers 7.12502
rthumb 16.3852 -16.005
lclavicle 1.04859e-014 -2.32578e-014
lhumerus -33.8284 7.25324 80.8375
lradius 40.7602
lwrist -3.34488
lhand 2.36341 37.7008
lfingers 7.12502
lthumb 27.8521 65.6562
rfemur -4.34447 -2.03411 30.3985
rtibia 22.0713
rfoot -28.1221 -0.0834897
rtoes -13.8117
lfemur -45.3646 9.6418 -8.06667
ltibia 59.8552
lfoot -21.8549 -2.62269
ltoes -21.3691
9
root -5.4485 16.6953 -13.8691 -143.266 66.6749 -152.451
lowerback 6.4903 0.28238 6.36838
upperback 1.85697 1.06993 4.26149
thorax -1.69334 0.602327 0.746434
lowerneck -13.0448 -7.69317 -11.7989
upperneck 10.9665 -9.60854 10.1578
head 6.54638 -4.40921 4.19974
rclavicle 1.80397e-014 1.68967e-014
rhumerus -14.4915 -3.38575 -69.0278
rradius 43.7552
rwrist -29.959
rhand -9.67078 13.125
rfingers 7.12502
rthumb 16.3007 -16.2099
lclavicle 1.80397e-014 1.68967e-014
lhumerus -32.9837 9.02348 81.0677
lradius 39.7672
lwrist -5.39298
lhand 2.0675 37.2987
lfingers 7.12502
lthumb 27.5691 65.2996
rfemur -3.54704 -2.14762 29.7834
rtibia 21.2912
rfoot -27.9183 -0.134202
rtoes -14.6491
lfemur -45.7764 9.19942 -8.40186
ltibia 59.0948
lfoot -21.7895 -2.64997
ltoes -21.2873
10
root -5.35925 16.6872 -13.9339 -143.261 66.7361 -152.461
lowerback 6.51687 0.401986 6.4763
upperback 1.99378 1.22993 4.20543
thorax -1.55739 0.687894 0.617003
lowerneck -13.2189 -7.8905 -11.833
upperneck 10.6586 -9.82666 10.1054
head 6.50143 -4.51713 4.15636
rclavicle 1.14301e-014 -7.35503e-015
rhumerus -13.5233 -2.90803 -68.7698
rradius 44.1377
rwrist -30.95
rhand -9.84747 12.9584
rfingers 7.12502
rthumb 16.1305 -16.3903
lclavicle 1.14301e-014 -7.35503e-015
lhumerus -32.6122 10.0469 81.1018
lradius 39.4748
lwrist -6.4946
lhand 1.52559 37.0619
lfingers 7.12502
lthumb 27.0508 65.1444
rfemur -2.89986 -2.13076 29.6559
rtibia 20.6166
rfoot -27.6798 -0.633675
rtoes -17.3696
lfemur -46.2426 8.81513 -8.17379
ltibia 58.402
lfoot -21.9382 -3.3454
ltoes -22.0861
11
root -5.26969 16.6683 -13.9892 -142.328 66.5241 -151.606
lowerback 6.64734 0.44195 6.7993
upperback 1.89727 1.33494 4.32293
thorax -1.72228 0.737702 0.549149
lowerneck -13.203 -7.87157 -11.7608
upperneck 10.5502 -9.80564 10.0806
head 6.45683 -4.50701 4.14022
rclavicle 2.62893e-014 -5.92378e-014
rhumerus -12.7415 -2.09714 -68.5176
rradius 44.4824
rwrist -32.2205
rhand -10.4957 12.9146
rfingers 7.12502
rthumb 15.5062 -16.4836
lclavicle 2.62893e-014 -5.92378e-014
lhumerus -33.3284 10.7587 80.9557
lradius 40.0175
lwrist -7.25201
lhand 1.47878 36.7554
lfingers 7.12502
lthumb 27.006 64.8449
rfemur -2.39337 -2.03835 30.0585
rtibia 19.9469
rfoot -27.3591 -0.886528
rtoes -18.6443
lfemur -46.9346 8.70317 -7.51835
ltibia 57.865
lfoot -21.7208 -4.46049
ltoes -21.6988
12
root -5.18138 16.6331 -14.0482 -141.144 66.2216 -150.498
lowerback 6.68667 0.573382 7.37867
upperback 1.81822 1.57048 4.40906
thorax -1.80427 0.854349 0.298378
lowerneck -13.1382 -7.94059 -11.6607
upperneck 10.3159 -9.92031 10.148
head 6.38317 -4.55648 4.13485
rclavicle -3.762e-014 -4.59193e-014
rhumerus -12.1875 -1.37474 -68.0225
rradius 45.013
rwrist -33.6875
rhand -11.0355 12.9507
rfingers 7.12502
rthumb 14.9863 -16.4871
lclavicle -3.762e-014 -4.59193e-014
lhumerus -33.2921 10.4006 80.7995
lradius 40.0105
lwrist -7.29288
lhand 1.79369 36.4214
lfingers 7.12502
lthumb 27.3073 64.4638
rfemur -1.76501 -1.70856 30.5878
rtibia 19.173
rfoot -26.9593 -0.75708
rtoes -17.204
lfemur -47.6752 8.69254 -6.78865
ltibia 57.5289
lfoot -21.3263 -5.26505
ltoes -20.0034
13
root -5.08054 16.6048 -14.1188 -140.601 66.1413 -149.926
lowerback 6.51204 0.699271 7.73401
upperback 1.98484 1.7434 4.50616
thorax -1.51795 0.956217 0.195301
lowerneck -13.309 -8.13919 -12.262
upperneck 10.0538 -10.1146 10.6481
head 6.41079 -4.63413 4.36387
rclavicle -6.65929e-015 -3.63776e-014
rhumerus -11.2909 -0.693239 -67.3663
rradius 45.6015
rwrist -35.0472
rhand -11.2671 12.5621
rfingers 7.12502
rthumb 14.7632 -16.8922
lclavicle -6.65929e-015 -3.63776e-014
lhumerus -32.6249 9.53241 80.7441
lradius 39.7536
lwrist -6.39653
lhand 2.16273 36.455
lfingers 7.12502
lthumb 27.6602 64.4414
rfemur -0.88321 -1.467 30.7216
rtibia 18.3782
rfoot -26.3842 -0.450519
rtoes -13.9343
lfemur -48.1344 8.58645 -6.36065
ltibia 57.3392
lfoot -20.932 -6.06429
ltoes -17.6993
14
root -4.96813 16.595 -14.1945 -141 66.2024 -150.288
lowerback 6.54582 0.689992 7.59698
upperback 2.00131 1.73124 4.60203
thorax -1.52779 0.952012 0.370582
lowerneck -13.2502 -8.1636 -12.9084
upperneck 9.89505 -10.0675 10.9675
head 6.39689 -4.61684 4.57818
rclavicle -6.4605e-015 -1.78906e-014
rhumerus -10.3844 0.163653 -66.7559
rradius 46.0408
rwrist -36.4144
rhand -11.3705 11.9892
rfingers 7.12502
rthumb 14.6635 -17.4723
lclavicle -6.4605e-015 -1.78906e-014
lhumerus -32.5417 9.33794 80.6363
lradius 39.7518
lwrist -5.86505
lhand 2.59152 36.4699
lfingers 7.12502
lthumb 28.0702 64.3898
rfemur 0.0150932 -1.6592 30.4146
rtibia 17.6836
rfoot -25.8568 -0.57781
rtoes -12.8096
lfemur -48.3879 8.30399 -6.33235
ltibia 57.2671
lfoot -20.4932 -7.13827
ltoes -15.6174
